# Blender 4.0.1
# www.blender.org
mtllib corp.mtl
o corp
v -2.300000 0.475000 -3.000000
v 2.300000 0.475000 -3.000000
v -2.300000 0.475000 3.000000
v 2.300000 0.475000 3.000000
v -2.300000 1.600000 3.000000
v 2.300000 1.600000 3.000000
v -2.300000 1.600000 -3.000000
v 2.300000 1.600000 -3.000000
v 2.300000 1.750000 2.400000
v 1.610000 1.975000 1.500000
v 1.610000 1.975000 -1.500000
v 2.300000 1.750000 -2.400000
v -1.610000 1.975000 1.500000
v -2.300000 1.750000 2.400000
v -2.300000 1.750000 -2.400000
v -1.610000 1.975000 -1.500000
vn -0.0000 -0.0000 -1.0000
vn -0.0000 -1.0000 -0.0000
vn -0.0000 -0.0000 1.0000
vn -0.0000 0.9701 0.2425
vn -0.0000 0.9701 -0.2425
vn -0.0000 1.0000 -0.0000
vn 0.3100 0.9507 -0.0000
vn 1.0000 -0.0000 -0.0000
vn -0.3100 0.9507 -0.0000
vn -1.0000 -0.0000 -0.0000
vt 0.375000 0.000000
vt 0.562500 0.000000
vt 0.562500 0.250000
vt 0.375000 0.250000
vt 0.125000 0.500000
vt 0.375000 0.500000
vt 0.375000 0.750000
vt 0.125000 0.750000
vt 0.562500 0.500000
vt 0.562500 0.750000
vt 0.612500 0.500000
vt 0.687500 0.537500
vt 0.687500 0.712500
vt 0.612500 0.750000
vt 0.587500 0.000000
vt 0.625000 0.037500
vt 0.625000 0.212500
vt 0.587500 0.250000
vt 0.812500 0.537500
vt 0.812500 0.712500
vt 0.687500 0.712500
vt 0.587500 0.475000
vt 0.587500 0.275000
vt 0.625000 0.312500
vt 0.625000 0.437500
vt 0.625000 0.812500
vt 0.625000 0.937500
vt 0.587500 0.975000
vt 0.587500 0.775000
vt 0.562500 1.000000
vt 0.375000 1.000000
s 0
usemtl Material.001
f 1/1/1 7/2/1 8/3/1 2/4/1
f 2/5/2 4/6/2 3/7/2 1/8/2
f 4/6/3 6/9/3 5/10/3 3/7/3
f 9/11/4 10/12/4 13/13/4 14/14/4 5/10/4 6/9/4
f 15/15/5 16/16/5 11/17/5 12/18/5 8/3/5 7/2/5
f 10/12/6 11/19/6 16/20/6 13/21/6
f 9/22/7 12/23/7 11/24/7 10/25/7
f 2/4/8 8/3/8 12/23/8 9/22/8 6/9/8 4/6/8
f 13/26/9 16/27/9 15/28/9 14/29/9
f 3/7/10 5/10/10 14/29/10 15/28/10 7/30/10 1/31/10
