# Blender 4.0.1
# www.blender.org
mtllib turela.mtl
o turela
v 1.000000 1.950000 0.500000
v 0.500000 1.950000 1.000000
v 0.933013 1.950000 0.750000
v 0.750000 1.950000 0.933013
v -0.500000 1.950000 1.000000
v -1.000000 1.950000 0.500000
v -0.750000 1.950000 0.933013
v -0.933013 1.950000 0.750000
v -1.000000 1.950000 -0.500000
v -0.500000 1.950000 -1.000000
v 0.500000 1.950000 -1.000000
v 1.000000 1.950000 -0.500000
v 0.467087 2.550000 0.750000
v 0.500000 2.475000 1.000000
v 0.750000 2.550000 0.467087
v 1.000000 2.475000 0.500000
v 0.620590 2.550000 0.708869
v 0.750000 2.475000 0.933013
v 0.708869 2.550000 0.620590
v 0.933013 2.475000 0.750000
v -0.750000 2.550000 0.467087
v -1.000000 2.475000 0.500000
v -0.467087 2.550000 0.750000
v -0.500000 2.475000 1.000000
v -0.708869 2.550000 0.620590
v -0.933013 2.475000 0.750000
v -0.620590 2.550000 0.708869
v -0.750000 2.475000 0.933013
v -0.396447 2.550000 -0.750000
v -0.500000 2.475000 -1.000000
v -0.750000 2.550000 -0.396447
v -1.000000 2.475000 -0.500000
v 0.750000 2.550000 -0.396447
v 1.000000 2.475000 -0.500000
v 0.396447 2.550000 -0.750000
v 0.500000 2.475000 -1.000000
vn -0.2588 -0.0000 0.9659
vn 0.9659 -0.0000 0.2588
vn -0.0000 -1.0000 -0.0000
vn -0.0000 -0.0000 1.0000
vn -0.9659 -0.0000 0.2588
vn 1.0000 -0.0000 -0.0000
vn -0.0000 1.0000 -0.0000
vn -1.0000 -0.0000 -0.0000
vn -0.7071 -0.0000 -0.7071
vn -0.7071 -0.0000 0.7071
vn -0.0000 -0.0000 -1.0000
vn 0.7071 -0.0000 -0.7071
vn 0.7071 -0.0000 0.7071
vn 0.0744 0.9578 0.2776
vn 0.2032 0.9578 0.2032
vn 0.2776 0.9578 0.0744
vn -0.2776 0.9578 0.0744
vn -0.2032 0.9578 0.2032
vn -0.0744 0.9578 0.2776
vn -0.0000 0.9578 0.2873
vn -0.2032 0.9578 -0.2032
vn -0.2873 0.9578 -0.0000
vn 0.2032 0.9578 -0.2032
vn 0.2873 0.9578 -0.0000
vn -0.0000 0.9578 -0.2873
vn 0.2588 -0.0000 0.9659
vt 0.593750 0.718750
vt 0.375000 0.718750
vt 0.375000 0.687500
vt 0.593750 0.687500
vt 0.593750 0.468750
vt 0.375000 0.468750
vt 0.375000 0.437500
vt 0.593750 0.437500
vt 0.125000 0.562500
vt 0.187500 0.500000
vt 0.312500 0.500000
vt 0.343750 0.508373
vt 0.366627 0.531250
vt 0.375000 0.562500
vt 0.366627 0.718750
vt 0.343750 0.741627
vt 0.312500 0.750000
vt 0.187500 0.750000
vt 0.125000 0.687500
vt 0.593750 0.562500
vt 0.593750 0.812500
vt 0.375000 0.812500
vt 0.375000 0.781250
vt 0.593750 0.781250
vt 0.375000 0.312500
vt 0.593750 0.312500
vt 0.656250 0.566614
vt 0.661391 0.547426
vt 0.672426 0.536391
vt 0.691614 0.531250
vt 0.799556 0.531250
vt 0.843750 0.575444
vt 0.843750 0.674556
vt 0.799556 0.718750
vt 0.691614 0.718750
vt 0.672426 0.713609
vt 0.661391 0.702574
vt 0.656250 0.683386
vt 0.593750 0.937500
vt 0.375000 0.937500
vt 0.375000 0.000000
vt 0.593750 0.000000
vt 0.593750 0.062500
vt 0.375000 0.062500
vt 0.593750 0.187500
vt 0.375000 0.187500
vt 0.593750 0.531250
vt 0.375000 0.531250
vt 0.625000 0.562500
vt 0.633373 0.531250
vt 0.656250 0.508373
vt 0.687500 0.500000
vt 0.687500 0.750000
vt 0.656250 0.741627
vt 0.633373 0.718750
vt 0.625000 0.687500
vt 0.875000 0.687500
vt 0.812500 0.750000
vt 0.812500 0.500000
vt 0.875000 0.562500
s 0
usemtl turela_material
f 28/1/1 7/2/1 5/3/1 24/4/1
f 20/5/2 3/6/2 1/7/2 16/8/2
f 11/9/3 12/10/3 1/11/3 3/12/3 4/13/3 2/14/3 5/3/3 7/15/3 8/16/3 6/17/3 9/18/3 10/19/3
f 2/14/4 14/20/4 24/4/4 5/3/4
f 22/21/5 6/22/5 8/23/5 26/24/5
f 12/25/6 34/26/6 16/8/6 1/7/6
f 13/27/7 17/28/7 19/29/7 15/30/7 33/31/7 35/32/7 29/33/7 31/34/7 21/35/7 25/36/7 27/37/7 23/38/7
f 6/22/8 22/21/8 32/39/8 9/40/8
f 9/41/9 32/42/9 30/43/9 10/44/9
f 26/24/10 8/23/10 7/2/10 28/1/10
f 10/44/11 30/43/11 36/45/11 11/46/11
f 34/26/12 12/25/12 11/46/12 36/45/12
f 18/47/13 4/48/13 3/6/13 20/5/13
f 17/28/14 13/27/14 14/49/14 18/50/14
f 19/29/15 17/28/15 18/50/15 20/51/15
f 15/30/16 19/29/16 20/51/16 16/52/16
f 25/36/17 21/35/17 22/53/17 26/54/17
f 27/37/18 25/36/18 26/54/18 28/55/18
f 23/38/19 27/37/19 28/55/19 24/56/19
f 13/27/20 23/38/20 24/4/20 14/20/20
f 31/34/21 29/33/21 30/57/21 32/58/21
f 21/35/22 31/34/22 32/58/22 22/53/22
f 35/32/23 33/31/23 34/59/23 36/60/23
f 33/31/24 15/30/24 16/52/24 34/59/24
f 29/33/25 35/32/25 36/60/25 30/57/25
f 14/20/26 2/14/26 4/48/26 18/47/26
